<svg xmlns="http://www.w3.org/2000/svg" xmlns:xlink="http://www.w3.org/1999/xlink" viewBox="0 0 480.08 373.33"><defs><style>.cls-1{fill:url(#linear-gradient);}.cls-2{fill:#fff;}.cls-3{fill:#6952a2;}</style><linearGradient id="linear-gradient" x1="240.04" y1="303.52" x2="240.04" gradientUnits="userSpaceOnUse"><stop offset="0" stop-color="#ebafd0"/><stop offset="0" stop-color="#e2a7cc"/><stop offset="0.38" stop-color="#9f71b1"/><stop offset="1" stop-color="#635ca8"/></linearGradient></defs><g id="Layer_2" data-name="Layer 2"><g id="Layer_1-2" data-name="Layer 1"><rect class="cls-1" width="480.08" height="303.52"/><path class="cls-2" d="M164.36,244.76a58,58,0,0,1-23.24,23.56q-15.1,8.44-36.39,10.56t-47.94-1.46l4.88-39.65a118.66,118.66,0,0,0,26,2.76,53.85,53.85,0,0,0,21-4.06,31.25,31.25,0,0,0,14.13-12q5.19-8.12,5.2-21.13V23.94h44.52V207.22Q172.48,229.65,164.36,244.76Z"/><path class="cls-2" d="M381.44,279q-11.06,3.9-11.05-6.5V164.33H269v103L235.2,279q-10.72,3.9-10.72-6.5V23.94H269V126.63H370.39V23.94h44.52v243.4Z"/><path class="cls-3" d="M1.47,366v-7.62H56.81V366Zm4.78-16.21V342.3h7.33V328h8.55v14.3h14V328H44.7v14.3H52v7.49ZM7,326.21v-7.49H51.27v7.49Z"/><path class="cls-3" d="M59.75,354.79v-7.31H83.34v-4.16H66.76v-17H99.22v-3.46H66.76V316h41.32v16.66H75.62v3.78H109v6.92H92.14v4.16h23v7.31Zm7.33,16.85V356.78h8.8v7.36H109v7.5Z"/><path class="cls-3" d="M118,366.39v-7.63h55.35v7.63Zm7.33-14.16v-33.9h41v7.43H134.22v5.83H166v7H134.22v6.21H167v7.44Z"/><path class="cls-3" d="M210.49,355.37c-1.41.47-2.11.06-2.11-1.22V335.5h-3.76a15.37,15.37,0,0,1-1.08,5.71,10.52,10.52,0,0,1-2.78,3.87,11.06,11.06,0,0,1-4.08,2.21,17.19,17.19,0,0,1-5,.71,17.47,17.47,0,0,1-5-.71,10.92,10.92,0,0,1-4.12-2.24,10.74,10.74,0,0,1-2.77-3.94,14.82,14.82,0,0,1-1-5.8v-7.05a14.86,14.86,0,0,1,1-5.8,10.74,10.74,0,0,1,2.77-3.94,11.26,11.26,0,0,1,4.12-2.27,16.81,16.81,0,0,1,5-.74,17.19,17.19,0,0,1,5,.71,11.14,11.14,0,0,1,4,2.17,10.74,10.74,0,0,1,2.77,3.82,14.23,14.23,0,0,1,1.12,5.6h3.76V314.93h8.35v38.32ZM196.33,328.2a5.12,5.12,0,0,0-1.31-3.91,4.73,4.73,0,0,0-3.35-1.22,4.64,4.64,0,0,0-3.28,1.22,5.12,5.12,0,0,0-1.31,3.91v7.17a5.12,5.12,0,0,0,1.31,3.91,4.64,4.64,0,0,0,3.28,1.22,4.73,4.73,0,0,0,3.35-1.22,5.12,5.12,0,0,0,1.31-3.91Zm-8.23,43.44V352.42h8.8v11.72h31.89v7.5Zm33.48-15c-1.36.47-2,.06-2-1.22V314.29h8.29v40.24Z"/><path class="cls-3" d="M234.59,366v-7.62h55.35V366Zm7.33-17.17V318.72h41v7.49H250.59v15.12h33v7.5Z"/><path class="cls-3" d="M324.75,360.88c-1.4.47-2.1,0-2.1-1.28V326.15H308.3v-7.5h23v40Zm12.82,9.67c-1.41.47-2.11,0-2.11-1.28v-54h8.36v19.35h5.42V314.29h8.29V371l-6.25,2.12q-2,.7-2-1.29V342.55h-5.42v25.89Z"/><path class="cls-3" d="M366.9,343.06V316.6h8.67v6h12.88v-6h8.67v26.46Zm7.2,29.35V356.26H404v-2.94H374.1v-6.73h38.77v15.82H383v3.21h30.86v6.79Zm14.35-42.67H375.57v6.08h12.88Zm17.86,15c-1.41.51-2.11.08-2.11-1.28V314.29h8.67v11.15h8.8v7.69h-8.8v9.29Z"/><path class="cls-3" d="M452.41,359.6,440.55,344l-12.37,16.4-6.64-4.54,14.61-19.16V326.15h-11.8v-7.5h32v7.5H445v10.44L459,355.05Zm11.92,13.52q-2.1.76-2.1-1.29V314.29h8.67v19.8h9.18v7.69H470.9v29Z"/></g></g></svg>