<svg xmlns="http://www.w3.org/2000/svg" xmlns:xlink="http://www.w3.org/1999/xlink" viewBox="0 0 480.08 373.33"><defs><style>.cls-1{fill:url(#linear-gradient);}.cls-2{fill:#fef4f4;}</style><linearGradient id="linear-gradient" x1="240.04" y1="373.33" x2="240.04" gradientUnits="userSpaceOnUse"><stop offset="0" stop-color="#99d5c6"/><stop offset="0.36" stop-color="#75cdd2"/><stop offset="1" stop-color="#6552a0"/></linearGradient></defs><g id="Layer_2" data-name="Layer 2"><g id="Layer_1-2" data-name="Layer 1"><rect class="cls-1" width="480.08" height="373.33" rx="25.68"/><path class="cls-2" d="M95.57,198.8,60.68,157.92,24.05,201,7.48,185.11l41-47.93v-35.8H72.72V137l39.59,46ZM42.19,272.75V212.11H66.26v37.75h85.47v22.89Zm89-46.36q-5.76,2.34-5.76-3.72V149.12H97V125.64h28.43v-28h23.73V219.54Z"/><path class="cls-2" d="M240.52,277.25q-5.76,2.14-5.76-3.92v-51H171.09V199H322.5v23.28H258.84V270.2ZM297.73,191,246.8,160.66,195.52,191l-12.39-20,51.28-29.14V130.53H190.28v-22.3h113v22.3H259.18v11.35L310.47,171Z"/><path class="cls-2" d="M335.24,132.49v-22.3h33.49V95.52h24.59v14.67H424.9v22.3Zm87.39,40.69a42.55,42.55,0,0,1-1.92,12.52A32.25,32.25,0,0,1,414.52,197a31.26,31.26,0,0,1-11.08,8.22q-6.81,3.13-16.57,3.13H374.66q-9.78,0-16.57-3.13A31.17,31.17,0,0,1,347,197a31.93,31.93,0,0,1-6.19-11.34,42.55,42.55,0,0,1-1.92-12.52,43.46,43.46,0,0,1,1.92-12.62A31.77,31.77,0,0,1,347,149.12a31.29,31.29,0,0,1,11.08-8.22q6.8-3.14,16.57-3.13h12.21q9.76,0,16.57,3.13a31.38,31.38,0,0,1,11.08,8.22,32.08,32.08,0,0,1,6.19,11.44A43.46,43.46,0,0,1,422.63,173.18Zm-61.58,99.57V219.34h24.07v30.52H470.6v22.89Zm37.85-99.57q0-6.06-3.57-9.39a12.92,12.92,0,0,0-9.16-3.33H375.36a12.83,12.83,0,0,0-9.25,3.33q-3.5,3.33-3.49,9.39,0,5.87,3.49,9.19a12.83,12.83,0,0,0,9.25,3.33h10.81a12.92,12.92,0,0,0,9.16-3.33Q398.9,179.06,398.9,173.18Zm51.11,55q-5.75,2.34-5.75-3.72v-27H425.94V174.74h18.32V159.68H425.94V137h18.32V97.67H468V221.3Z"/></g></g></svg>